<svg width="192" height="160" viewBox="0 0 192 160" fill="none" xmlns="http://www.w3.org/2000/svg">
<g clip-path="url(#clip0_245:45)">
<path d="M111.664 86.393C111.512 86.4309 110.904 86.4309 110.638 86.4309H91.0197V90.9839H110.98C111.132 90.9839 112.311 90.9839 112.539 90.9459C116.607 90.5665 118.47 87.1897 118.47 84.2303C118.47 81.195 116.531 77.932 112.843 77.5905C112.12 77.5146 111.512 77.5146 111.246 77.5146H98.2053C97.635 77.5146 96.9887 77.4767 96.7606 77.4008C95.7341 77.1352 95.3539 76.2246 95.3539 75.4658C95.3539 74.7828 95.7341 73.8722 96.7986 73.5687C97.1028 73.4928 97.445 73.4549 98.1673 73.4549H116.987V68.9778H97.8632C97.0648 68.9778 96.4564 69.0157 95.9622 69.0916C92.6925 69.5469 90.4114 72.1649 90.4114 75.5037C90.4114 78.2355 92.1222 81.4226 95.8862 81.9538C96.5705 82.0297 97.521 82.0297 97.9392 82.0297H110.638C110.866 82.0297 111.436 82.0297 111.55 82.0676C112.995 82.2573 113.489 83.3197 113.489 84.2682C113.489 85.1788 112.919 86.1653 111.664 86.393Z" fill="#C3002F"/>
<path d="M74.4813 86.393C74.3293 86.4309 73.7209 86.4309 73.4928 86.4309H53.8368V90.9839H73.797C73.9491 90.9839 75.1277 90.9839 75.3558 90.9459C79.4238 90.5665 81.2868 87.1897 81.2868 84.2303C81.2868 81.195 79.3478 77.932 75.6599 77.5905C74.9376 77.5146 74.3293 77.5146 74.0631 77.5146H61.0225C60.4522 77.5146 59.8059 77.4767 59.5777 77.4008C58.5512 77.1352 58.171 76.2246 58.171 75.4658C58.171 74.7828 58.5512 73.8722 59.6158 73.5687C59.9199 73.4928 60.2621 73.4549 60.9845 73.4549H79.804V68.9778H60.6803C59.8819 68.9778 59.2736 69.0157 58.7793 69.0916C55.5097 69.5469 53.2285 72.1649 53.2285 75.5037C53.2285 78.2355 54.9394 81.4226 58.7033 81.9538C59.3876 82.0297 60.3381 82.0297 60.7563 82.0297H73.4548C73.6829 82.0297 74.2532 82.0297 74.3673 82.0676C75.812 82.2573 76.3063 83.3197 76.3063 84.2682C76.3063 85.1788 75.774 86.1653 74.4813 86.393Z" fill="#C3002F"/>
<path d="M43.6096 68.8262H38.6671V91.098H43.6096V68.8262Z" fill="#C3002F"/>
<path d="M27.7556 91.098V68.8262H22.8131V85.4447L6.35069 68.8262H0.00146484V91.098H4.94398V74.4036L21.5204 91.098H27.7556Z" fill="#C3002F"/>
<path d="M186.714 68.8262V85.4447L170.252 68.8262H163.903V91.098H168.845V74.4036L185.384 91.098H191.619V68.8262H186.714Z" fill="#C3002F"/>
<path d="M138.164 68.8262L124.249 91.098H130.256L132.727 87.1141H148.961L151.432 91.098H157.401L143.486 68.8262H138.164ZM146.414 82.9026H135.274L140.863 73.9483L146.414 82.9026Z" fill="#C3002F"/>
<path d="M27.4894 56.1916C37.4505 27.1662 64.9005 7.66421 95.8482 7.66421C126.796 7.66421 154.284 27.1662 164.207 56.1916L164.283 56.4192H186.068V53.8012L177.02 52.7389C171.431 52.0939 170.252 49.6277 168.731 46.5164L168.351 45.7576C155.273 17.9843 126.796 0 95.8482 0C64.8625 0 36.424 17.9843 23.3453 45.8335L22.9651 46.5923C21.4444 49.7035 20.2657 52.1698 14.6769 52.8148L5.6283 53.8771V56.4951H27.3754L27.4894 56.1916Z" fill="#C3002F"/>
<path d="M164.283 103.543L164.207 103.77C154.246 132.796 126.796 152.26 95.8483 152.26C64.9005 152.26 37.4125 132.758 27.4895 103.733L27.4134 103.505H5.66638V106.123L14.715 107.185C20.3038 107.83 21.4824 110.296 23.0032 113.408L23.3834 114.166C36.4621 142.016 64.9385 160 95.8863 160C126.834 160 155.311 142.016 168.389 114.204L168.769 113.446C170.29 110.334 171.469 107.868 177.058 107.223L186.106 106.161V103.543H164.283Z" fill="#C3002F"/>
</g>
<defs>
<clipPath id="clip0_245:45">
<rect width="191.617" height="160" fill="white"/>
</clipPath>
</defs>
</svg>
